<svg width="12" height="9" viewBox="0 0 12 9" fill="currentColor" xmlns="http://www.w3.org/2000/svg">
<path fill-rule="evenodd" clip-rule="evenodd" d="M7.71985 1.18395C7.8605 1.04334 8.05123 0.964355 8.25011 0.964355C8.44899 0.964355 8.63972 1.04334 8.78037 1.18395L11.7804 4.18399C11.921 4.32464 12 4.51537 12 4.71425C12 4.91312 11.921 5.10385 11.7804 5.2445L8.78037 8.24454C8.63891 8.38116 8.44946 8.45676 8.25281 8.45505C8.05616 8.45334 7.86805 8.37446 7.72899 8.23541C7.58993 8.09635 7.51105 7.90824 7.50935 7.71159C7.50764 7.51494 7.58323 7.32548 7.71985 7.18403L9.43963 5.46426H0.75001C0.551095 5.46426 0.360327 5.38524 0.219673 5.24458C0.0790187 5.10393 0 4.91316 0 4.71425C0 4.51533 0.0790187 4.32456 0.219673 4.18391C0.360327 4.04325 0.551095 3.96424 0.75001 3.96424H9.43963L7.71985 2.24446C7.57925 2.10381 7.50026 1.91308 7.50026 1.71421C7.50026 1.51533 7.57925 1.3246 7.71985 1.18395Z" fill="currentColor"/>
</svg>
