<svg width="16" height="15" viewBox="0 0 16 15" fill="none" xmlns="http://www.w3.org/2000/svg">
<path d="M7.04838 1.38301C7.34838 0.462011 8.65138 0.462011 8.95038 1.38301L10.0204 4.67501C10.0858 4.8755 10.2128 5.05019 10.3835 5.17412C10.5541 5.29804 10.7595 5.36486 10.9704 5.36501H14.4324C15.4014 5.36501 15.8034 6.60501 15.0204 7.17501L12.2204 9.20901C12.0494 9.33304 11.9221 9.50802 11.8567 9.70886C11.7913 9.90971 11.7912 10.1261 11.8564 10.327L12.9264 13.619C13.2264 14.54 12.1714 15.307 11.3864 14.737L8.58638 12.703C8.41559 12.579 8.20994 12.5122 7.99888 12.5122C7.78782 12.5122 7.58217 12.579 7.41138 12.703L4.61138 14.737C3.82738 15.307 2.77338 14.54 3.07238 13.619L4.14238 10.327C4.20755 10.1261 4.20744 9.90971 4.14205 9.70886C4.07665 9.50802 3.94935 9.33304 3.77838 9.20901L0.979379 7.17601C0.196379 6.60601 0.599379 5.36601 1.56738 5.36601H5.02838C5.23943 5.36607 5.44508 5.29935 5.6159 5.17541C5.78672 5.05147 5.91395 4.87666 5.97938 4.67601L7.04938 1.38401L7.04838 1.38301Z" fill="#FCAB1E"/>
</svg>
