<svg width="14" height="17" viewBox="0 0 14 17" fill="none" xmlns="http://www.w3.org/2000/svg">
<path fill-rule="evenodd" clip-rule="evenodd" d="M9.39501 1.36597C9.33162 1.239 9.24194 1.12698 9.13193 1.03735C9.02191 0.947718 8.89408 0.882528 8.75692 0.846111C8.61977 0.809694 8.47644 0.802886 8.33645 0.826137C8.19646 0.849389 8.06302 0.902168 7.945 0.980968C7.6 1.21097 7.33101 1.53897 7.12301 1.86097C6.90901 2.19097 6.72001 2.57397 6.55301 2.97697C6.21901 3.78097 5.93901 4.74497 5.71301 5.71097C5.43969 6.89146 5.23501 8.08679 5.10001 9.29097C4.69314 9.02867 4.36622 8.65955 4.15501 8.22397C3.82701 7.54397 3.757 6.68997 3.757 5.56997C3.75696 5.37222 3.69829 5.17892 3.58841 5.01451C3.47852 4.8501 3.32236 4.72196 3.13966 4.64629C2.95696 4.57062 2.75593 4.55082 2.56197 4.58938C2.36802 4.62795 2.18986 4.72316 2.05001 4.86297C1.39917 5.5124 0.883032 6.28401 0.531232 7.13348C0.179433 7.98294 -0.00109811 8.89354 5.02513e-06 9.81297C8.80858e-05 10.9641 0.284051 12.0974 0.826743 13.1126C1.36944 14.1278 2.15411 14.9934 3.11125 15.6329C4.0684 16.2724 5.16849 16.666 6.31407 16.7788C7.45965 16.8916 8.61536 16.7201 9.67886 16.2796C10.7423 15.8391 11.6808 15.1431 12.4111 14.2532C13.1413 13.3634 13.6409 12.3072 13.8655 11.1782C14.0901 10.0492 14.0328 8.88227 13.6987 7.78071C13.3645 6.67914 12.7639 5.67697 11.95 4.86297C11.358 4.27197 10.97 3.87797 10.602 3.39597C10.239 2.91997 9.87801 2.33297 9.39501 1.36597ZM9.12 13.933C8.70046 14.352 8.16615 14.6373 7.58455 14.7528C7.00296 14.8684 6.40016 14.809 5.85231 14.5821C5.30446 14.3553 4.83612 13.9712 4.50644 13.4783C4.17676 12.9854 4.00053 12.4059 4.00001 11.813C4.00001 11.813 4.87901 12.313 6.50001 12.313C6.50001 11.313 7.00001 8.31297 7.75001 7.81297C8.25001 8.81297 8.53601 9.10597 9.12101 9.69197C9.40004 9.97015 9.62135 10.3007 9.7722 10.6647C9.92305 11.0287 10.0005 11.419 10 11.813C10.0005 12.207 9.92305 12.5972 9.7722 12.9612C9.62135 13.3252 9.40004 13.6558 9.12101 13.934L9.12 13.933Z" fill="#F7752A"/>
</svg>
